<?xml version="1.0" encoding="UTF-8"?> <svg xmlns="http://www.w3.org/2000/svg" xmlns:xlink="http://www.w3.org/1999/xlink" width="2054" height="1870" xml:space="preserve" overflow="hidden"><defs><clipPath id="clip0"><rect x="1081" y="247" width="2054" height="1870"></rect></clipPath><linearGradient x1="1954.85" y1="998.106" x2="1415.7" y2="558.018" gradientUnits="userSpaceOnUse" spreadMethod="reflect" id="fill1"><stop offset="0" stop-color="#FFFFFF" stop-opacity="1"></stop><stop offset="0.07" stop-color="#FFFFFF" stop-opacity="1"></stop><stop offset="0.26" stop-color="#D0CECE" stop-opacity="1"></stop><stop offset="0.78" stop-color="#D0CECE" stop-opacity="1"></stop><stop offset="0.91" stop-color="#FFFFFF" stop-opacity="1"></stop><stop offset="1" stop-color="#FFFFFF" stop-opacity="1"></stop></linearGradient><linearGradient x1="2205.04" y1="1028.2" x2="2801.93" y2="571.748" gradientUnits="userSpaceOnUse" spreadMethod="reflect" id="fill2"><stop offset="0" stop-color="#FFFFFF" stop-opacity="1"></stop><stop offset="0.07" stop-color="#FFFFFF" stop-opacity="1"></stop><stop offset="0.26" stop-color="#D0CECE" stop-opacity="1"></stop><stop offset="0.78" stop-color="#D0CECE" stop-opacity="1"></stop><stop offset="0.91" stop-color="#FFFFFF" stop-opacity="1"></stop><stop offset="1" stop-color="#FFFFFF" stop-opacity="1"></stop></linearGradient><linearGradient x1="2099.5" y1="1229" x2="2099.5" y2="1768" gradientUnits="userSpaceOnUse" spreadMethod="reflect" id="fill3"><stop offset="0" stop-color="#FFFFFF" stop-opacity="1"></stop><stop offset="0.07" stop-color="#FFFFFF" stop-opacity="1"></stop><stop offset="0.26" stop-color="#D0CECE" stop-opacity="1"></stop><stop offset="0.78" stop-color="#D0CECE" stop-opacity="1"></stop><stop offset="0.91" stop-color="#FFFFFF" stop-opacity="1"></stop><stop offset="1" stop-color="#FFFFFF" stop-opacity="1"></stop></linearGradient><clipPath id="clip4"><rect x="2846" y="382" width="97" height="145"></rect></clipPath><clipPath id="clip5"><rect x="2846" y="382" width="97" height="145"></rect></clipPath><clipPath id="clip6"><rect x="2846" y="382" width="97" height="145"></rect></clipPath><clipPath id="clip7"><rect x="1970" y="760" width="265" height="366"></rect></clipPath><clipPath id="clip8"><rect x="1970" y="760" width="265" height="366"></rect></clipPath><clipPath id="clip9"><rect x="1970" y="760" width="265" height="366"></rect></clipPath><clipPath id="clip10"><rect x="1523" y="250" width="166" height="255"></rect></clipPath><clipPath id="clip11"><rect x="1523" y="250" width="166" height="255"></rect></clipPath><clipPath id="clip12"><rect x="1523" y="250" width="166" height="255"></rect></clipPath><clipPath id="clip13"><rect x="1182" y="467" width="166" height="231"></rect></clipPath><clipPath id="clip14"><rect x="1182" y="467" width="166" height="231"></rect></clipPath><clipPath id="clip15"><rect x="1182" y="467" width="166" height="231"></rect></clipPath><clipPath id="clip16"><rect x="2919" y="617" width="97" height="139"></rect></clipPath><clipPath id="clip17"><rect x="2919" y="617" width="97" height="139"></rect></clipPath><clipPath id="clip18"><rect x="2919" y="617" width="97" height="139"></rect></clipPath><clipPath id="clip19"><rect x="2487" y="317" width="197" height="147"></rect></clipPath><clipPath id="clip20"><rect x="2487" y="317" width="197" height="147"></rect></clipPath><clipPath id="clip21"><rect x="2487" y="317" width="197" height="147"></rect></clipPath><clipPath id="clip22"><rect x="1958" y="1733" width="120" height="175"></rect></clipPath><clipPath id="clip23"><rect x="1958" y="1733" width="120" height="175"></rect></clipPath><clipPath id="clip24"><rect x="1958" y="1733" width="120" height="175"></rect></clipPath><clipPath id="clip25"><rect x="1692" y="1820" width="254" height="155"></rect></clipPath><clipPath id="clip26"><rect x="1692" y="1820" width="254" height="155"></rect></clipPath><clipPath id="clip27"><rect x="1692" y="1820" width="254" height="155"></rect></clipPath><clipPath id="clip28"><rect x="2108" y="1735" width="121" height="174"></rect></clipPath><clipPath id="clip29"><rect x="2108" y="1735" width="121" height="174"></rect></clipPath><clipPath id="clip30"><rect x="2108" y="1735" width="121" height="174"></rect></clipPath><clipPath id="clip31"><rect x="2255" y="1820" width="257" height="155"></rect></clipPath><clipPath id="clip32"><rect x="2255" y="1820" width="257" height="155"></rect></clipPath><clipPath id="clip33"><rect x="2255" y="1820" width="257" height="155"></rect></clipPath></defs><g clip-path="url(#clip0)" transform="translate(-1081 -247)"><path d="M1928.64 1030.22 1389.49 590.13 1441.91 525.906 1981.06 965.994Z" fill="url(#fill1)" fill-rule="nonzero"></path><path d="M1446.5 775.5C1446.5 725.794 1486.79 685.5 1536.5 685.5L1825.5 685.5C1875.21 685.5 1915.5 725.794 1915.5 775.5 1915.5 825.206 1875.21 865.5 1825.5 865.5L1536.5 865.5C1486.79 865.5 1446.5 825.206 1446.5 775.5Z" stroke="#AFABAB" stroke-width="4.58333" stroke-linecap="butt" stroke-linejoin="miter" stroke-miterlimit="8" stroke-opacity="1" fill="#F2F2F2" fill-rule="evenodd" fill-opacity="1"></path><text fill="#343333" fill-opacity="1" font-family="Arial,Arial_MSFontService,sans-serif" font-style="normal" font-variant="normal" font-weight="400" font-stretch="normal" font-size="64" text-anchor="start" direction="ltr" writing-mode="lr-tb" text-decoration="none" transform="matrix(1 0 0 1 1603.61 762)">Steer </text><text fill="#343333" fill-opacity="1" font-family="Arial,Arial_MSFontService,sans-serif" font-style="normal" font-variant="normal" font-weight="400" font-stretch="normal" font-size="64" text-anchor="start" direction="ltr" writing-mode="lr-tb" text-decoration="none" transform="matrix(1 0 0 1 1562.63 831)">the ART</text><path d="M2193.39 1012.96 2790.27 556.506 2813.58 586.991 2216.7 1043.45Z" fill="url(#fill2)" fill-rule="nonzero"></path><path d="M2265.5 773.023C2265.5 725.79 2303.79 687.5 2351.02 687.5L2649.98 687.5C2697.21 687.5 2735.5 725.79 2735.5 773.023L2735.5 778.977C2735.5 826.21 2697.21 864.5 2649.98 864.5L2351.02 864.5C2303.79 864.5 2265.5 826.21 2265.5 778.977Z" stroke="#AFABAB" stroke-width="4.58333" stroke-linecap="butt" stroke-linejoin="miter" stroke-miterlimit="8" stroke-opacity="1" fill="#F2F2F2" fill-rule="evenodd" fill-opacity="1"></path><text fill="#343333" fill-opacity="1" font-family="Arial,Arial_MSFontService,sans-serif" font-style="normal" font-variant="normal" font-weight="400" font-stretch="normal" font-size="64" text-anchor="start" direction="ltr" writing-mode="lr-tb" text-decoration="none" transform="matrix(1 0 0 1 2384.17 766)">Align on </text><text fill="#343333" fill-opacity="1" font-family="Arial,Arial_MSFontService,sans-serif" font-style="normal" font-variant="normal" font-weight="400" font-stretch="normal" font-size="64" text-anchor="start" direction="ltr" writing-mode="lr-tb" text-decoration="none" transform="matrix(1 0 0 1 2354.08 835)">Outcomes</text><rect x="2082" y="1229" width="35" height="539" fill="url(#fill3)"></rect><path d="M1857.5 1487C1857.5 1439.78 1895.78 1401.5 1943 1401.5L2261 1401.5C2308.22 1401.5 2346.5 1439.78 2346.5 1487 2346.5 1534.22 2308.22 1572.5 2261 1572.5L1943 1572.5C1895.78 1572.5 1857.5 1534.22 1857.5 1487Z" stroke="#AFABAB" stroke-width="4.58333" stroke-linecap="butt" stroke-linejoin="miter" stroke-miterlimit="8" stroke-opacity="1" fill="#F2F2F2" fill-rule="evenodd" fill-opacity="1"></path><text fill="#343333" fill-opacity="1" font-family="Arial,Arial_MSFontService,sans-serif" font-style="normal" font-variant="normal" font-weight="400" font-stretch="normal" font-size="64" text-anchor="start" direction="ltr" writing-mode="lr-tb" text-decoration="none" transform="matrix(1 0 0 1 1952.32 1477)">Evolve the </text><text fill="#343333" fill-opacity="1" font-family="Arial,Arial_MSFontService,sans-serif" font-style="normal" font-variant="normal" font-weight="400" font-stretch="normal" font-size="64" text-anchor="start" direction="ltr" writing-mode="lr-tb" text-decoration="none" transform="matrix(1 0 0 1 1986.12 1546)">Solution</text><text fill="#343333" fill-opacity="1" font-family="Arial,Arial_MSFontService,sans-serif" font-style="normal" font-variant="normal" font-weight="700" font-stretch="normal" font-size="73" text-anchor="start" direction="ltr" writing-mode="lr-tb" text-decoration="none" transform="matrix(1 0 0 1 1731.26 1212)">Product Management</text><text fill="#343333" fill-opacity="1" font-family="Arial,Arial_MSFontService,sans-serif" font-style="normal" font-variant="normal" font-weight="400" font-stretch="normal" font-size="55" text-anchor="start" direction="ltr" writing-mode="lr-tb" text-decoration="none" transform="matrix(1 0 0 1 2775.66 582)">Customer</text><g clip-path="url(#clip4)"><g clip-path="url(#clip5)"><g clip-path="url(#clip6)"><path d="M3811.3 2186.72 3811.3 2234.61C3811.3 2241.76 3811.3 2241.68 3820.17 2241.68L3860.35 2241.68C3860.35 2241.68 3839.98 2169.08 3837.05 2166.47 3821.46 2171.45 3811.3 2170.85 3811.3 2186.72Z" fill="#053947" fill-rule="nonzero" fill-opacity="1" transform="matrix(1 0 0 1 -964.047 -1714.68)"></path><path d="M3906.8 2186.72 3906.8 2234.61C3906.8 2241.76 3906.8 2241.68 3897.92 2241.68L3857.74 2241.68C3857.74 2241.68 3878.11 2169.08 3881.09 2166.47 3896.63 2171.45 3906.8 2170.85 3906.8 2186.72Z" fill="#053947" fill-rule="nonzero" fill-opacity="1" transform="matrix(1 0 0 1 -964.047 -1714.68)"></path><path d="M3860.43 2166.31C3871.16 2166.31 3886.91 2150.92 3886.95 2131.99 3886.99 2113.07 3879.56 2097.72 3860.43 2097.68 3841.31 2097.64 3834 2113.03 3833.96 2131.99 3833.92 2150.96 3849.79 2166.31 3860.43 2166.31Z" fill="#7B7B7B" fill-rule="nonzero" fill-opacity="1" transform="matrix(1 0 0 1 -964.047 -1714.68)"></path></g></g></g><g clip-path="url(#clip7)"><g clip-path="url(#clip8)"><g clip-path="url(#clip9)"><path d="M129.165 364.565 232.497 364.565C255.282 364.565 260.507 368.919 260.507 350.487L260.507 227.998C260.507 187.362 229.449 188.958 189.249 176.187 182.863 181.847 154.563 190.845 130.181 207.97" fill="#4D3B5B" fill-rule="nonzero" fill-opacity="1" transform="matrix(1.00457 0 0 1 1971.15 760)"></path><path d="M131.342 364.565 124.086 364.565C124.086 364.565 28.1551 364.565 28.1551 364.565 5.36978 364.565 0.145129 368.919 0.145129 350.487L0.145129 227.998C0.145129 187.362 31.2028 188.958 71.4036 176.187 77.7893 181.847 106.089 190.845 130.471 207.97" fill="#4D3B5B" fill-rule="nonzero" fill-opacity="1" transform="matrix(1.00457 0 0 1 1971.15 760)"></path><path d="M130.181 175.752C157.61 175.752 197.956 136.421 198.101 87.9483 198.101 39.33 179.089 0.145129 130.181 0 81.2724 0 62.2604 39.33 62.2604 87.9483 62.2604 136.421 102.752 175.752 130.181 175.752Z" fill="#7B7B7B" fill-rule="nonzero" fill-opacity="1" transform="matrix(1.00457 0 0 1 1971.15 760)"></path><path d="M169.366 170.672 130.181 207.825 158.336 229.014 189.249 176.187 169.366 170.672Z" fill="#AC96C0" fill-rule="nonzero" fill-opacity="1" transform="matrix(1.00457 0 0 1 1971.15 760)"></path><path d="M91.1412 170.672 130.181 207.825 102.171 229.014 71.2585 176.187 91.1412 170.672Z" fill="#AC96C0" fill-rule="nonzero" fill-opacity="1" transform="matrix(1.00457 0 0 1 1971.15 760)"></path></g></g></g><text fill="#343333" fill-opacity="1" font-family="Arial,Arial_MSFontService,sans-serif" font-style="normal" font-variant="normal" font-weight="400" font-stretch="normal" font-size="55" text-anchor="start" direction="ltr" writing-mode="lr-tb" text-decoration="none" transform="matrix(1 0 0 1 1553.27 578)">RTE</text><g clip-path="url(#clip10)"><g clip-path="url(#clip11)"><g clip-path="url(#clip12)"><path d="M119.918 129.115C116.041 132.541 85.6557 164.91 85.6557 164.91 85.6557 164.91 51.9344 132.541 48.0574 129.115 23.7131 136.869 4.5082 135.967 4.5082 160.672L4.5082 235.238C4.5082 241.189 11.0902 239.656 24.8852 239.656L145.885 239.656C159.68 239.656 160.492 240.918 160.492 235.238L160.492 160.672C160.492 135.967 144.262 136.869 119.918 129.115Z" stroke="#AC96C0" stroke-width="9.01639" stroke-linecap="butt" stroke-linejoin="miter" stroke-miterlimit="10" stroke-opacity="1" fill="#D0C5DA" fill-rule="nonzero" fill-opacity="1" transform="matrix(1 0 0 1.02626 1523 252.619)"></path><path d="M91.0656 130.016C107.746 130.016 132.18 106.033 132.27 76.6393 132.27 47.1557 120.73 23.2623 91.0656 23.1721 61.4016 23.1721 49.8607 47.1557 49.7705 76.6393 49.7705 106.123 74.3852 130.016 91.0656 130.016Z" fill="#7B7B7B" fill-rule="nonzero" fill-opacity="1" transform="matrix(1 0 0 1.02626 1523 252.619)"></path><path d="M54.0082 52.9262C54.0082 52.9262 79.0738 66.0902 85.6557 66.7213 92.3279 67.4426 138.943 72.041 146.066 71.5 153.189 70.959 136.508 49.5 136.508 49.5" fill="#AC96C0" fill-rule="nonzero" fill-opacity="1" transform="matrix(1 0 0 1.02626 1523 252.619)"></path><path d="M139.033 40.9344C137.41 51.3934 127.041 58.5164 115.77 57.7951 99.8115 56.8033 91.7869 57.0738 75.918 59.0574 64.7377 60.4098 53.918 54.0984 51.5738 43.7295 49.9508 36.4262 49.1393 32.8197 47.5164 25.5164 45.1721 15.1475 54.6393 4.05738 68.8852 2.2541 88.8115-0.180328 99.0902-0.540984 119.197 0.721311 133.443 1.62295 143.541 11.9918 141.918 22.541 140.746 29.9344 140.205 33.6311 139.033 40.9344Z" fill="#AC96C0" fill-rule="nonzero" fill-opacity="1" transform="matrix(1 0 0 1.02626 1523 252.619)"></path><path d="M137.5 50.582C104.139 45.3525 86.7377 45.8934 53.6475 53.2869 52.8361 49.5902 52.3852 47.6967 51.5738 44 86.0164 36.3361 104.139 35.7049 138.943 41.2049 138.311 44.9918 138.041 46.8852 137.5 50.6721Z" fill="#735988" fill-rule="nonzero" fill-opacity="1" transform="matrix(1 0 0 1.02626 1523 252.619)"></path><path d="M57.6148 117.303 39.1311 126.049 84.123 173.836 134.074 128.213 118.836 121.721 86.2869 157.516 57.6148 117.303Z" fill="#735988" fill-rule="nonzero" fill-opacity="1" transform="matrix(1 0 0 1.02626 1523 252.619)"></path></g></g></g><text fill="#343333" fill-opacity="1" font-family="Arial,Arial_MSFontService,sans-serif" font-style="normal" font-variant="normal" font-weight="400" font-stretch="normal" font-size="55" text-anchor="start" direction="ltr" writing-mode="lr-tb" text-decoration="none" transform="matrix(1 0 0 1 1172.92 768)">System </text><text fill="#343333" fill-opacity="1" font-family="Arial,Arial_MSFontService,sans-serif" font-style="normal" font-variant="normal" font-weight="400" font-stretch="normal" font-size="55" text-anchor="start" direction="ltr" writing-mode="lr-tb" text-decoration="none" transform="matrix(1 0 0 1 1157.72 827)">Architect</text><g clip-path="url(#clip13)"><g clip-path="url(#clip14)"><g clip-path="url(#clip15)"><path d="M43.6492 110.433C47.6256 113.958 56.8434 131.4 80.611 131.4 104.379 131.4 113.506 113.958 117.482 110.433 142.696 118.476 161.312 117.482 161.312 142.967L161.312 219.782C161.312 231.35 157.878 228.82 143.6 228.82L18.6164 228.82C4.33781 228.82 0 231.35 0 219.782L0 142.967C0 117.482 18.5261 118.476 43.6492 110.433Z" fill="#735988" fill-rule="nonzero" fill-opacity="1" transform="matrix(1.00073 0 0 1 1183.74 468)"></path><path d="M80.7014 110.162C63.5309 110.162 38.1366 85.491 38.1366 55.1264 38.1366 52.3249 38.227 49.5233 38.4981 46.8122 40.4862 20.3335 52.7767 0 80.7014 0 111.337 0 123.266 24.6713 123.357 55.1264 123.357 85.491 97.9622 110.162 80.7014 110.162Z" fill="#7B7B7B" fill-rule="nonzero" fill-opacity="1" transform="matrix(1.00073 0 0 1 1183.74 468)"></path><path d="M55.3071 63.1694C55.3071 63.1694 57.9279 93.3533 20.7853 104.74 20.7853 104.74 38.9499 79.1651 38.9499 61.6331L55.3071 63.079Z" fill="#7B7B7B" fill-rule="nonzero" fill-opacity="1" transform="matrix(1.00073 0 0 1 1183.74 468)"></path><path d="M106.186 107.09 80.7014 131.4 98.9563 145.226 119.109 110.705 106.186 107.09Z" fill="#D0C5DA" fill-rule="nonzero" fill-opacity="1" transform="matrix(1.00073 0 0 1 1183.74 468)"></path><path d="M55.2167 107.09 80.7014 131.4 62.4464 145.226 42.2937 110.705 55.2167 107.09Z" fill="#D0C5DA" fill-rule="nonzero" fill-opacity="1" transform="matrix(1.00073 0 0 1 1183.74 468)"></path></g></g></g><text fill="#343333" fill-opacity="1" font-family="Arial,Arial_MSFontService,sans-serif" font-style="normal" font-variant="normal" font-weight="400" font-stretch="normal" font-size="55" text-anchor="start" direction="ltr" writing-mode="lr-tb" text-decoration="none" transform="matrix(1 0 0 1 2864.31 821)">Solution</text><text fill="#343333" fill-opacity="1" font-family="Arial,Arial_MSFontService,sans-serif" font-style="normal" font-variant="normal" font-weight="400" font-stretch="normal" font-size="55" text-anchor="start" direction="ltr" writing-mode="lr-tb" text-decoration="none" transform="matrix(1 0 0 1 2894.4 874)">Mgmt</text><g clip-path="url(#clip16)"><g clip-path="url(#clip17)"><g clip-path="url(#clip18)"><path d="M47.9474 73.838C41.5404 73.838 35.0809 71.6848 29.5667 67.431L47.8424 125.567 66.3807 67.4835C60.8665 71.6848 54.4069 73.838 48 73.838Z" fill="#AC96C0" fill-rule="nonzero" fill-opacity="1" transform="matrix(1 0 0 1.0024 2919 617.854)"></path><path d="M47.8424 136.385 47.8424 136.805 85.7067 136.805C94.0568 136.805 95.9999 138.381 95.9999 131.659L95.9999 86.652C95.9999 71.7373 82.1356 71.5798 66.3807 67.4835 65.4879 69.7942 47.8424 125.672 47.8424 125.672" fill="#4D3B5B" fill-rule="nonzero" fill-opacity="1" transform="matrix(1 0 0 1.0024 2919 617.854)"></path><path d="M48.1575 136.385 48.1575 136.805 45.4792 136.805C45.4792 136.805 10.2932 136.805 10.2932 136.805 1.94311 136.805 0 138.381 0 131.659L0 86.652C0 71.7373 13.8643 71.5798 29.6192 67.4835 30.512 69.7942 47.8424 125.672 47.8424 125.672" fill="#4D3B5B" fill-rule="nonzero" fill-opacity="1" transform="matrix(1 0 0 1.0024 2919 617.854)"></path><path d="M48 66.6958C58.0306 66.6958 72.8927 52.2538 72.8927 34.4507 72.8927 16.5952 65.908 2.20569 48 2.15317 30.0919 2.15317 23.1072 16.5952 23.0547 34.4507 23.0547 52.2538 37.9168 66.6958 48 66.6958Z" fill="#7B7B7B" fill-rule="nonzero" fill-opacity="1" transform="matrix(1 0 0 1.0024 2919 617.854)"></path></g></g></g><g clip-path="url(#clip19)"><g clip-path="url(#clip20)"><g clip-path="url(#clip21)"><path d="M68.1765 69.2814C65.7455 71.4361 49.2263 101.878 44.5854 118.176 39.9445 101.878 25.0827 70.8284 22.5966 68.6184 7.12704 73.5908 0.441987 72.4858 0.441987 88.2316L0.441987 135.635C0.441987 142.762-2.32043 141.049 6.46406 141.049L83.3698 141.049C92.1542 141.049 88.3973 142.706 88.3973 135.635L88.3973 88.2316C88.3973 72.5411 83.7012 74.2538 68.1765 69.2814Z" fill="#AC96C0" fill-rule="nonzero" fill-opacity="1" transform="matrix(1.00926 0 0 1 2487 319.893)"></path><path d="M79.9996 53.0384 65.2483 12.3756C61.1599 6.57455 54.1986 0 43.4804 0 32.8175 0 25.8562 6.5193 21.8231 12.3756L3.64639 53.0384 23.0938 53.0384C28.6186 59.3367 36.9611 67.5135 43.4804 67.5135 49.9998 67.5135 58.3423 59.3367 63.8671 53.0384L79.9996 53.0384Z" fill="#7B7B7B" fill-rule="nonzero" fill-opacity="1" transform="matrix(1.00926 0 0 1 2487 319.893)"></path><path d="M102.375 87.7896 102.375 134.309C102.375 141.325 102.375 141.215 110.994 141.215L150.165 141.215C150.165 141.215 130.331 70.6626 127.458 68.1212 112.209 72.9831 102.375 72.3753 102.375 87.7896Z" fill="#4D3B5B" fill-rule="nonzero" fill-opacity="1" transform="matrix(1.00926 0 0 1 2487 319.893)"></path><path d="M195.192 87.7896 195.192 134.309C195.192 141.325 195.192 141.215 186.574 141.215L147.403 141.215C147.403 141.215 167.237 70.6626 170.11 68.1212 185.358 72.9831 195.192 72.3753 195.192 87.7896Z" fill="#4D3B5B" fill-rule="nonzero" fill-opacity="1" transform="matrix(1.00926 0 0 1 2487 319.893)"></path><path d="M154.916 77.1819 148.784 71.0494 142.651 77.1819 143.59 78.0659 146.85 81.3256 144.364 98.9498 148.784 111.049 153.259 98.9498 150.717 81.3256 154.032 78.0659 154.916 77.1819Z" fill="#4D3B5B" fill-rule="nonzero" fill-opacity="1" transform="matrix(1.00926 0 0 1 2487 319.893)"></path><path d="M148.784 67.9555C159.17 67.9555 174.474 53.0384 174.53 34.6407 174.53 16.1878 167.347 1.32596 148.784 1.27071 130.276 1.27071 123.038 16.1878 123.038 34.6407 123.038 53.0384 138.397 67.9555 148.784 67.9555Z" fill="#7B7B7B" fill-rule="nonzero" fill-opacity="1" transform="matrix(1.00926 0 0 1 2487 319.893)"></path></g></g></g><text fill="#343333" fill-opacity="1" font-family="Arial,Arial_MSFontService,sans-serif" font-style="normal" font-variant="normal" font-weight="400" font-stretch="normal" font-size="55" text-anchor="start" direction="ltr" writing-mode="lr-tb" text-decoration="none" transform="matrix(1 0 0 1 2473.29 525)">Business</text><text fill="#343333" fill-opacity="1" font-family="Arial,Arial_MSFontService,sans-serif" font-style="normal" font-variant="normal" font-weight="400" font-stretch="normal" font-size="55" text-anchor="start" direction="ltr" writing-mode="lr-tb" text-decoration="none" transform="matrix(1 0 0 1 2489.9 584)">Owners</text><g clip-path="url(#clip22)"><g clip-path="url(#clip23)"><g clip-path="url(#clip24)"><path d="M87.2986 82.1086C84.3044 84.7701 77.9832 100.806 60.3505 100.806 42.7178 100.806 35.4651 84.7701 32.4708 82.1086 13.7735 88.0971-0.0665386 87.3651-0.0665386 106.329L-0.0665386 163.485C-0.0665386 172.069 2.46193 170.139 13.1081 170.139L105.929 170.139C116.509 170.139 119.769 172.069 119.769 163.485L119.769 106.262C119.769 87.2986 106.062 88.0305 87.3651 82.042Z" fill="#4D3B5B" fill-rule="nonzero" fill-opacity="1" transform="matrix(1.00193 0 0 1 1958 1735.36)"></path><path d="M59.8847 81.909C72.6601 81.909 91.4905 63.5443 91.4905 40.9878 91.4905 18.3646 82.6409 0.0665386 59.8847 0 37.1285 0.0665386 28.2789 18.3646 28.2789 40.9878 28.2789 63.5443 47.1758 81.909 59.8847 81.909Z" fill="#7B7B7B" fill-rule="nonzero" fill-opacity="1" transform="matrix(1.00193 0 0 1 1958 1735.36)"></path></g></g></g><text fill="#343333" fill-opacity="1" font-family="Arial,Arial_MSFontService,sans-serif" font-style="normal" font-variant="normal" font-weight="400" font-stretch="normal" font-size="55" text-anchor="start" direction="ltr" writing-mode="lr-tb" text-decoration="none" transform="matrix(1 0 0 1 2005.99 1980)">Product </text><text fill="#343333" fill-opacity="1" font-family="Arial,Arial_MSFontService,sans-serif" font-style="normal" font-variant="normal" font-weight="400" font-stretch="normal" font-size="55" text-anchor="start" direction="ltr" writing-mode="lr-tb" text-decoration="none" transform="matrix(1 0 0 1 2005.99 2039)">Owners</text><g clip-path="url(#clip25)"><g clip-path="url(#clip26)"><g clip-path="url(#clip27)"><path d="M105.814 65.6627 105.814 100.949C105.814 106.253 105.814 106.165 112.345 106.165L142.065 106.165C142.065 106.165 127.03 52.6441 124.838 50.7155 113.266 54.3975 105.77 53.9592 105.77 65.6627Z" fill="#D0C5DA" fill-rule="nonzero" fill-opacity="1" transform="matrix(-1 0 0 1.00215 1945.78 1821)"></path><path d="M146.711 57.5973 142.065 52.951 137.418 57.5973 138.12 58.2548 140.618 60.7534 138.733 74.0788 142.065 83.2838 145.44 74.0788 143.511 60.7534 146.01 58.2548 146.711 57.5973Z" fill="#D0C5DA" fill-rule="nonzero" fill-opacity="1" transform="matrix(-1 0 0 1.00215 1945.78 1821)"></path><path d="M142.065 50.584C149.955 50.584 161.571 39.2311 161.614 25.292 161.614 11.3091 156.135 0 142.065-0.0438336 127.994-0.0438336 122.559 11.3091 122.515 25.292 122.515 39.2311 134.175 50.584 142.065 50.584Z" fill="#7B7B7B" fill-rule="nonzero" fill-opacity="1" transform="matrix(-1 0 0 1.00215 1945.78 1821)"></path><path d="M106.34 76.4458C104.499 78.0676 100.598 88.0179 89.6835 88.0179 78.769 88.0179 74.2979 78.1115 72.5008 76.4458 60.9725 80.1278 52.425 79.6895 52.425 91.393L52.425 126.679C52.425 131.983 54.003 130.799 60.5342 130.799L117.869 130.799C124.4 130.799 126.416 131.983 126.416 126.679L126.416 91.393C126.416 79.6895 117.912 80.1278 106.384 76.4458Z" fill="#9078A6" fill-rule="nonzero" fill-opacity="1" transform="matrix(-1 0 0 1.00215 1945.78 1821)"></path><path d="M90.2534 76.3143C98.1434 76.3143 109.759 64.9614 109.803 51.0223 109.803 37.0394 104.324 25.7742 90.2534 25.7303 76.1828 25.7303 70.7474 37.0832 70.7036 51.0223 70.7036 64.9614 82.3633 76.3143 90.2534 76.3143Z" fill="#7B7B7B" fill-rule="nonzero" fill-opacity="1" transform="matrix(-1 0 0 1.00215 1945.78 1821)"></path><path d="M233.107 87.448C231.178 89.1575 225.042 103.316 215.968 103.184 206.938 103.053 204.703 98.3626 200.363 90.1219L200.363 130.843 245.161 130.843C251.692 130.843 252.569 130.931 252.569 125.627L252.569 102.395C252.569 90.6917 244.635 91.13 233.107 87.448Z" fill="#4D3B5B" fill-rule="nonzero" fill-opacity="1" transform="matrix(-1 0 0 1.00215 1945.78 1821)"></path><path d="M216.626 87.3165C208.736 87.3165 197.12 76.0075 197.076 62.0684 197.076 48.0855 202.555 36.7764 216.626 36.7764 230.696 36.7764 236.132 48.1293 236.175 62.0684 236.175 76.0075 224.516 87.3165 216.626 87.3165Z" fill="#7B7B7B" fill-rule="nonzero" fill-opacity="1" transform="matrix(-1 0 0 1.00215 1945.78 1821)"></path><path d="M181.033 99.0201C179.192 100.642 172.047 117.825 163.499 118.044 154.996 118.263 149.078 100.16 147.237 98.5379 135.665 102.22 130.756 101.431 130.756 113.135L130.756 148.421C130.756 153.724 128.52 152.541 135.095 152.541L192.429 152.541C198.961 152.541 196.068 153.724 196.068 148.421L196.068 113.135C196.068 101.431 192.605 102.702 181.077 99.0201Z" fill="#725A88" fill-rule="nonzero" fill-opacity="1" transform="matrix(-1 0 0 1.00215 1945.78 1821)"></path><path d="M189.887 87.2727 178.885 56.8083C175.86 52.4688 170.688 47.5156 162.71 47.5156 154.776 47.5156 149.604 52.4688 146.58 56.8083L133.035 87.2727 147.544 87.2727C151.664 93.8039 157.889 98.0558 162.71 98.0558 167.532 98.0558 173.8 93.7601 177.877 87.2727L189.887 87.2727Z" fill="#7B7B7B" fill-rule="nonzero" fill-opacity="1" transform="matrix(-1 0 0 1.00215 1945.78 1821)"></path><path d="M33.3135 113.485C41.2036 113.485 52.8195 102.132 52.8633 88.1932 52.8633 74.2103 47.3841 62.9012 33.3135 62.8574 19.2429 62.8574 13.8076 74.2103 13.7637 88.1932 13.7637 102.132 25.4235 113.485 33.3135 113.485Z" fill="#7B7B7B" fill-rule="nonzero" fill-opacity="1" transform="matrix(-1 0 0 1.00215 1945.78 1821)"></path><path d="M15.6048 75.3938C15.6048 75.3938 10.8269 105.946 3.06835 106.296-4.64636 106.647 7.49554 111.074 15.9554 109.233 24.4153 107.392 25.5112 105.201 25.5112 105.201L15.5609 75.3938Z" fill="#7B7B7B" fill-rule="nonzero" fill-opacity="1" transform="matrix(-1 0 0 1.00215 1945.78 1821)"></path><path d="M34.1902 122.69C28.974 122.69 22.0483 117.693 18.0156 110.241 6.53121 113.88 0.219168 113.485 0.219168 125.145L0.219168 148.377C0.219168 153.681-1.49034 152.585 5.0847 152.585L48.0855 152.585 48.0855 113.924C43.7459 119.271 38.5297 122.69 34.1902 122.69Z" fill="#AC96C0" fill-rule="nonzero" fill-opacity="1" transform="matrix(-1 0 0 1.00215 1945.78 1821)"></path></g></g></g><text fill="#000000" fill-opacity="1" font-family="Arial,Arial_MSFontService,sans-serif" font-style="normal" font-variant="normal" font-weight="400" font-stretch="normal" font-size="37" text-anchor="start" direction="ltr" writing-mode="lr-tb" text-decoration="none" transform="matrix(1 0 0 1 2733.32 2084)">© Scaled Agile, Inc.</text><g clip-path="url(#clip28)"><g clip-path="url(#clip29)"><g clip-path="url(#clip30)"><path d="M87.2984 82.1084C84.3042 84.77 77.983 100.806 60.3503 100.806 42.7177 100.806 35.465 84.77 32.4708 82.1084 13.7735 88.0969-0.0665384 87.365-0.0665384 106.328L-0.0665384 163.485C-0.0665384 172.068 2.46192 170.139 13.1081 170.139L105.929 170.139C116.509 170.139 119.769 172.068 119.769 163.485L119.769 106.262C119.769 87.2984 106.062 88.0303 87.365 82.0419Z" fill="#4D3B5B" fill-rule="nonzero" fill-opacity="1" transform="matrix(1.00193 0 0 1 2109 1737.36)"></path><path d="M59.8846 81.9088C72.66 81.9088 91.4903 63.5442 91.4903 40.9877 91.4903 18.3646 82.6407 0.0665384 59.8846 0 37.1284 0.0665384 28.2788 18.3646 28.2788 40.9877 28.2788 63.5442 47.1757 81.9088 59.8846 81.9088Z" fill="#7B7B7B" fill-rule="nonzero" fill-opacity="1" transform="matrix(1.00193 0 0 1 2109 1737.36)"></path></g></g></g><g clip-path="url(#clip31)"><g clip-path="url(#clip32)"><g clip-path="url(#clip33)"><path d="M106.734 66.2337 106.734 101.827C106.734 107.177 106.734 107.088 113.322 107.088L143.3 107.088C143.3 107.088 128.134 53.1019 125.924 51.1565 114.251 54.8705 106.69 54.4284 106.69 66.2337Z" fill="#D0C5DA" fill-rule="nonzero" fill-opacity="1" transform="matrix(-1.00314 0 0 1 2510.78 1821)"></path><path d="M147.987 58.0982 143.3 53.4114 138.613 58.0982 139.321 58.7614 141.841 61.2817 139.94 74.7229 143.3 84.008 146.705 74.7229 144.759 61.2817 147.279 58.7614 147.987 58.0982Z" fill="#D0C5DA" fill-rule="nonzero" fill-opacity="1" transform="matrix(-1.00314 0 0 1 2510.78 1821)"></path><path d="M143.3 51.0238C151.259 51.0238 162.976 39.5722 163.02 25.5119 163.02 11.4074 157.493 0 143.3-0.0442148 129.107-0.0442148 123.624 11.4074 123.58 25.5119 123.58 39.5722 135.341 51.0238 143.3 51.0238Z" fill="#7B7B7B" fill-rule="nonzero" fill-opacity="1" transform="matrix(-1.00314 0 0 1 2510.78 1821)"></path><path d="M107.265 77.1105C105.408 78.7465 101.473 88.7832 90.4634 88.7832 79.4539 88.7832 74.944 78.7907 73.1312 77.1105 61.5027 80.8246 52.8809 80.3824 52.8809 92.1878L52.8809 127.781C52.8809 133.131 54.4726 131.937 61.0606 131.937L118.893 131.937C125.481 131.937 127.515 133.131 127.515 127.781L127.515 92.1878C127.515 80.3824 118.938 80.8246 107.309 77.1105Z" fill="#9078A6" fill-rule="nonzero" fill-opacity="1" transform="matrix(-1.00314 0 0 1 2510.78 1821)"></path><path d="M91.0382 76.9779C98.9968 76.9779 110.714 65.5263 110.758 51.466 110.758 37.3615 105.231 25.9983 91.0382 25.9541 76.8452 25.9541 71.3626 37.4057 71.3184 51.466 71.3184 65.5263 83.0795 76.9779 91.0382 76.9779Z" fill="#7B7B7B" fill-rule="nonzero" fill-opacity="1" transform="matrix(-1.00314 0 0 1 2510.78 1821)"></path><path d="M235.134 88.2085C233.189 89.9328 226.999 104.214 217.846 104.082 208.738 103.949 206.483 99.2179 202.106 90.9055L202.106 131.981 247.293 131.981C253.881 131.981 254.765 132.069 254.765 126.719L254.765 103.286C254.765 91.4803 246.763 91.9225 235.134 88.2085Z" fill="#4D3B5B" fill-rule="nonzero" fill-opacity="1" transform="matrix(-1.00314 0 0 1 2510.78 1821)"></path><path d="M218.509 88.0758C210.551 88.0758 198.834 76.6684 198.79 62.6081 198.79 48.5036 204.316 37.0962 218.509 37.0962 232.702 37.0962 238.185 48.5478 238.229 62.6081 238.229 76.6684 226.468 88.0758 218.509 88.0758Z" fill="#7B7B7B" fill-rule="nonzero" fill-opacity="1" transform="matrix(-1.00314 0 0 1 2510.78 1821)"></path><path d="M182.607 99.8811C180.75 101.517 173.543 118.849 164.921 119.07 156.343 119.291 150.374 101.031 148.517 99.3948 136.845 103.109 131.893 102.313 131.893 114.118L131.893 149.711C131.893 155.061 129.638 153.867 136.27 153.867L194.103 153.867C200.691 153.867 197.773 155.061 197.773 149.711L197.773 114.118C197.773 102.313 194.28 103.595 182.651 99.8811Z" fill="#725A88" fill-rule="nonzero" fill-opacity="1" transform="matrix(-1.00314 0 0 1 2510.78 1821)"></path><path d="M191.538 88.0316 180.44 57.3023C177.39 52.9251 172.172 47.9288 164.125 47.9288 156.122 47.9288 150.905 52.9251 147.854 57.3023L134.192 88.0316 148.827 88.0316C152.983 94.6196 159.262 98.9084 164.125 98.9084 168.989 98.9084 175.312 94.5754 179.423 88.0316L191.538 88.0316Z" fill="#7B7B7B" fill-rule="nonzero" fill-opacity="1" transform="matrix(-1.00314 0 0 1 2510.78 1821)"></path><path d="M33.6032 114.472C41.5619 114.472 53.2788 103.02 53.323 88.9601 53.323 74.8556 47.7962 63.4482 33.6032 63.404 19.4103 63.404 13.9276 74.8556 13.8834 88.9601 13.8834 103.02 25.6446 114.472 33.6032 114.472Z" fill="#7B7B7B" fill-rule="nonzero" fill-opacity="1" transform="matrix(-1.00314 0 0 1 2510.78 1821)"></path><path d="M15.7405 76.0494C15.7405 76.0494 10.921 106.867 3.09503 107.221-4.68676 107.575 7.56072 112.04 16.0942 110.183 24.6276 108.326 25.733 106.115 25.733 106.115L15.6962 76.0494Z" fill="#7B7B7B" fill-rule="nonzero" fill-opacity="1" transform="matrix(-1.00314 0 0 1 2510.78 1821)"></path><path d="M34.4875 123.757C29.226 123.757 22.24 118.717 18.1723 111.2 6.588 114.87 0.221074 114.472 0.221074 126.233L0.221074 149.667C0.221074 155.017-1.5033 153.912 5.12891 153.912L48.5036 153.912 48.5036 114.914C44.1263 120.308 38.8648 123.757 34.4875 123.757Z" fill="#AC96C0" fill-rule="nonzero" fill-opacity="1" transform="matrix(-1.00314 0 0 1 2510.78 1821)"></path></g></g></g></g></svg> 